<?xml version="1.0" encoding="iso-8859-1"?>
<!-- Generator: Adobe Illustrator 19.0.0, SVG Export Plug-In . SVG Version: 6.00 Build 0)  -->
<svg version="1.1" id="Capa_1" xmlns="http://www.w3.org/2000/svg" xmlns:xlink="http://www.w3.org/1999/xlink" x="0px" y="0px"
	 viewBox="0 0 512 512" style="enable-background:new 0 0 512 512;" xml:space="preserve">
<polygon style="fill:#CFDFE8;" points="503.467,426.667 273.067,426.667 256,392.533 238.933,426.667 8.533,426.667 8.533,238.933 
	503.467,238.933 "/>
<polygon style="fill:#238892;" points="213.333,392.533 42.667,392.533 42.667,273.067 230.4,273.067 "/>
<polygon style="fill:#DD3E46;" points="469.333,392.533 298.667,392.533 281.6,273.067 469.333,273.067 "/>
<g>
	<polygon style="fill:#AABECE;" points="8.533,238.933 145.067,85.333 230.4,85.333 230.4,119.467 170.667,119.467 102.4,238.933 	
		"/>
	<polygon style="fill:#AABECE;" points="503.467,238.933 366.933,85.333 281.6,85.333 281.6,119.467 341.333,119.467 409.6,238.933 
			"/>
</g>
<g>
	<rect x="68.267" y="298.667" style="fill:#FFFFFF;" width="17.067" height="17.067"/>
	<rect x="68.267" y="332.8" style="fill:#FFFFFF;" width="17.067" height="34.133"/>
</g>
<path d="M34.133,401.067h186.598l19.507-136.533H34.133V401.067z M51.2,281.6h169.361L205.935,384H51.2V281.6z"/>
<path d="M291.268,401.067h186.598V264.533H271.761L291.268,401.067z M460.8,281.6V384H306.065l-14.626-102.4H460.8z"/>
<path d="M511.411,236.032c-0.043-0.179-0.102-0.358-0.162-0.538c-0.35-0.811-0.819-1.57-1.399-2.236l-136.533-153.6
	c-1.621-1.818-3.942-2.859-6.383-2.859H281.6c-4.71,0-8.533,3.823-8.533,8.533v34.133c0,4.71,3.823,8.533,8.533,8.533h54.784
	l58.513,102.4H117.103L175.616,128H230.4c4.71,0,8.533-3.823,8.533-8.533V85.333c0-4.71-3.823-8.533-8.533-8.533h-85.333
	c-2.441,0-4.762,1.041-6.383,2.859L2.15,233.259c-0.58,0.666-1.05,1.425-1.399,2.236c-0.06,0.179-0.119,0.358-0.162,0.538
	c-0.29,0.794-0.452,1.621-0.495,2.458c0,0.154-0.094,0.282-0.094,0.444v187.733c0,4.71,3.823,8.533,8.533,8.533h230.4
	c3.234,0,6.195-1.826,7.637-4.719L256,411.614l9.387,18.867c1.451,2.91,4.429,4.736,7.68,4.719h230.4
	c4.71,0,8.533-3.823,8.533-8.533V238.933c0-0.162-0.085-0.29-0.094-0.444C511.863,237.653,511.701,236.826,511.411,236.032z
	 M348.74,115.2c-1.527-2.645-4.352-4.275-7.407-4.267h-51.2V93.867h72.969L484.463,230.4h-69.914L348.74,115.2z M148.898,93.867
	h72.969v17.067h-51.2c-3.055-0.009-5.879,1.621-7.407,4.267L97.451,230.4H27.537L148.898,93.867z M494.933,418.133H278.34
	l-14.66-29.414c-2.517-4.215-7.97-5.598-12.194-3.081c-1.271,0.759-2.33,1.818-3.081,3.081l-14.746,29.414H17.067V247.467h477.867
	V418.133z"/>
<rect x="68.267" y="298.667" width="17.067" height="17.067"/>
<rect x="68.267" y="332.8" width="17.067" height="34.133"/>
<g>
</g>
<g>
</g>
<g>
</g>
<g>
</g>
<g>
</g>
<g>
</g>
<g>
</g>
<g>
</g>
<g>
</g>
<g>
</g>
<g>
</g>
<g>
</g>
<g>
</g>
<g>
</g>
<g>
</g>
</svg>
