<?xml version="1.0" encoding="iso-8859-1"?>
<!-- Generator: Adobe Illustrator 16.0.0, SVG Export Plug-In . SVG Version: 6.00 Build 0)  -->
<!DOCTYPE svg PUBLIC "-//W3C//DTD SVG 1.1//EN" "http://www.w3.org/Graphics/SVG/1.1/DTD/svg11.dtd">
<svg version="1.1" id="Capa_1" xmlns="http://www.w3.org/2000/svg" xmlns:xlink="http://www.w3.org/1999/xlink" x="0px" y="0px"
	 width="360.151px" height="360.151px" viewBox="0 0 360.151 360.151" style="enable-background:new 0 0 360.151 360.151;"
	 xml:space="preserve">
<g>
	<g>
		<path d="M121.474,289.489H62.236c-1.483,0-2.688,1.202-2.688,2.688v30.462c0,1.48,1.205,2.688,2.688,2.688h59.237
			c1.483,0,2.688-1.208,2.688-2.688v-30.462C124.161,290.691,122.961,289.489,121.474,289.489z M118.786,319.951H64.924v-25.086
			h53.861V319.951z"/>
		<path d="M209.886,289.489H150.65c-1.483,0-2.688,1.202-2.688,2.688v30.462c0,1.48,1.205,2.688,2.688,2.688h59.241
			c1.485,0,2.688-1.208,2.688-2.688v-30.462C212.574,290.691,211.376,289.489,209.886,289.489z M207.2,319.951h-53.862v-25.086
			h53.866v25.086H207.2z"/>
		<path d="M297.909,289.489h-59.239c-1.48,0-2.688,1.202-2.688,2.688v30.462c0,1.48,1.207,2.688,2.688,2.688h59.244
			c1.485,0,2.688-1.208,2.688-2.688v-30.462C300.596,290.691,299.399,289.489,297.909,289.489z M295.22,319.951h-53.863v-25.086
			h53.869v25.086H295.22z"/>
		<path d="M0,34.824v249.515h360.151V34.824H0z M344.025,267.09c0,1.479-1.208,2.688-2.688,2.688H18.813
			c-1.483,0-2.688-1.208-2.688-2.688V52.074c0-1.483,1.205-2.688,2.688-2.688h322.523c1.48,0,2.688,1.205,2.688,2.688V267.09z"/>
		<path d="M182.763,117.419c0,0.047-0.026,0.089-0.026,0.134c21.16,1.32,38.048,18.21,39.365,39.363
			c0.052,0,0.095-0.027,0.137-0.027h116.405V54.756H182.758v62.663H182.763z"/>
		<polygon points="176.624,186.175 196.868,145.558 196.417,141.041 163.277,141.041 163.277,149.164 185.261,149.164 
			166.831,186.175 		"/>
		<path d="M138.041,162.244c-0.049,0-0.092,0.026-0.136,0.026H21.501v102.132h155.887v-62.647c0-0.052,0.026-0.094,0.026-0.135
			C156.256,200.292,139.361,183.404,138.041,162.244z"/>
		<path d="M138.041,156.921c1.32-21.158,18.216-38.041,39.368-39.363c0-0.05-0.026-0.092-0.026-0.134V54.761H21.496v102.133h116.403
			C137.954,156.894,137.991,156.921,138.041,156.921z"/>
		<path d="M222.102,162.244c-1.317,21.16-18.205,38.048-39.365,39.365c0,0.052,0.026,0.094,0.026,0.136v62.652h155.886V162.264
			h-116.41C222.192,162.27,222.154,162.244,222.102,162.244z"/>
	</g>
</g>
<g>
</g>
<g>
</g>
<g>
</g>
<g>
</g>
<g>
</g>
<g>
</g>
<g>
</g>
<g>
</g>
<g>
</g>
<g>
</g>
<g>
</g>
<g>
</g>
<g>
</g>
<g>
</g>
<g>
</g>
</svg>
