<?xml version="1.0" encoding="iso-8859-1"?>
<!-- Generator: Adobe Illustrator 19.0.0, SVG Export Plug-In . SVG Version: 6.00 Build 0)  -->
<svg version="1.1" id="Capa_1" xmlns="http://www.w3.org/2000/svg" xmlns:xlink="http://www.w3.org/1999/xlink" x="0px" y="0px"
	 viewBox="0 0 512 512" style="enable-background:new 0 0 512 512;" xml:space="preserve">
<g>
	<g>
		<path d="M150.746,327.733H106.33c-11.233,0-20.373,9.139-20.373,20.373v31.231c0,11.233,9.139,20.373,20.373,20.373h44.417
			c11.233,0,20.373-9.139,20.373-20.373v-31.231C171.119,336.872,161.98,327.733,150.746,327.733z M156.119,379.337
			c0,2.962-2.41,5.372-5.372,5.372H106.33c-2.962,0-5.372-2.41-5.372-5.372v-31.231c0-2.962,2.41-5.372,5.372-5.372h44.417
			c2.962,0,5.372,2.41,5.372,5.372V379.337z"/>
	</g>
</g>
<g>
	<g>
		<path d="M145.331,425.11H93.457c-4.142,0-7.5,3.358-7.5,7.5s3.358,7.5,7.5,7.5h51.874c4.142,0,7.5-3.358,7.5-7.5
			S149.473,425.11,145.331,425.11z"/>
	</g>
</g>
<g>
	<g>
		<path d="M236.522,425.11h-51.874c-4.142,0-7.5,3.358-7.5,7.5s3.358,7.5,7.5,7.5h51.874c4.142,0,7.5-3.358,7.5-7.5
			S240.664,425.11,236.522,425.11z"/>
	</g>
</g>
<g>
	<g>
		<path d="M327.712,425.11h-51.874c-4.142,0-7.5,3.358-7.5,7.5s3.358,7.5,7.5,7.5h51.874c4.142,0,7.5-3.358,7.5-7.5
			S331.854,425.11,327.712,425.11z"/>
	</g>
</g>
<g>
	<g>
		<path d="M418.902,425.11h-51.874c-4.142,0-7.5,3.358-7.5,7.5s3.358,7.5,7.5,7.5h51.874c4.142,0,7.5-3.358,7.5-7.5
			S423.044,425.11,418.902,425.11z"/>
	</g>
</g>
<g>
	<g>
		<path d="M490.784,198.041c0,0-28.997-152.301-29.027-152.459c-3.416-17.943-21.249-30.063-39.19-26.647l-52.1,9.919
			c-4.069,0.774-6.74,4.701-5.965,8.771c0.775,4.069,4.701,6.738,8.771,5.965c0,0,52.016-9.903,52.1-9.919
			c9.931-1.891,19.764,4.813,21.65,14.717l3.75,19.697l-431.71,82.193c0,0-3.747-19.682-3.75-19.697
			c-1.893-9.944,4.817-19.756,14.728-21.643l310.576-59.131c4.069-0.775,6.74-4.702,5.965-8.77
			c-0.775-4.069-4.701-6.738-8.771-5.965c0,0-310.318,59.082-310.576,59.131c-17.94,3.415-30.074,21.24-26.657,39.183
			l41.958,220.379v106.36c0,18.48,15.035,33.515,33.515,33.515h402.435c18.481,0,33.515-15.036,33.515-33.515V229.199
			C512,215.065,503.195,202.955,490.784,198.041z M462.423,129.281l12.644,66.412h-28.932l-4.794-25.182
			c-1.828-9.598-10.239-16.564-20-16.564c-1.277,0-2.563,0.122-3.825,0.362l-43.633,8.307c-5.346,1.018-9.975,4.056-13.035,8.556
			c-3.06,4.5-4.185,9.921-3.167,15.268l1.761,9.253H113.599L462.423,129.281z M430.865,195.693h-56.152l-2.296-12.058
			c-0.268-1.41,0.028-2.839,0.835-4.026c0.807-1.187,2.028-1.987,3.438-2.256l43.633-8.307c0.338-0.064,0.681-0.097,1.019-0.097
			c2.567,0,4.781,1.838,5.263,4.369L430.865,195.693z M42.534,229.198v44.362l-11.82-62.087l19.623-3.735
			C45.47,213.555,42.534,221.04,42.534,229.198z M27.908,196.738l-6.04-31.723l431.71-82.194l6.04,31.723L27.908,196.738z
			 M478.485,478.641H76.049c-10.208,0-18.515-8.305-18.515-18.515V311.544h439.464v148.582h0.001
			C496.999,470.335,488.694,478.641,478.485,478.641z M496.999,296.544H57.535v-32.293h439.464V296.544z M496.999,249.25
			L496.999,249.25H57.535v-20.051c0-10.204,8.306-18.506,18.515-18.506h402.435c1.314,0,2.636,0.15,3.92,0.426
			c8.331,1.804,14.595,9.22,14.595,18.08V249.25z"/>
	</g>
</g>
<g>
	<g>
		<path d="M393.133,327.743c-9.963,0-19.069,3.718-26.023,9.828c-7.135-6.254-16.378-9.828-26.031-9.828
			c-21.769,0-39.479,17.71-39.479,39.479s17.711,39.479,39.479,39.479c9.653,0,18.896-3.574,26.031-9.828
			c6.954,6.11,16.061,9.828,26.023,9.828c21.77,0,39.48-17.711,39.48-39.48C432.614,345.452,414.903,327.743,393.133,327.743z
			 M341.079,391.701c-13.497,0-24.479-10.981-24.479-24.479s10.981-24.479,24.479-24.479c6.285,0,12.295,2.443,16.804,6.694
			c0.05,0.047-0.509,1.082-0.55,1.17c-2.413,5.177-3.679,10.902-3.679,16.615c0,6.138,1.455,12.304,4.229,17.785
			C353.376,389.258,347.365,391.701,341.079,391.701z M393.133,391.702c-13.219,0-24.479-11.17-24.479-24.48
			c0-13.266,11.207-24.479,24.479-24.479c13.498,0,24.48,10.981,24.48,24.48C417.613,380.722,406.632,391.702,393.133,391.702z"/>
	</g>
</g>
<g>
</g>
<g>
</g>
<g>
</g>
<g>
</g>
<g>
</g>
<g>
</g>
<g>
</g>
<g>
</g>
<g>
</g>
<g>
</g>
<g>
</g>
<g>
</g>
<g>
</g>
<g>
</g>
<g>
</g>
</svg>
